<?xml version="1.0" encoding="UTF-8"?><svg id="Layer_1" xmlns="http://www.w3.org/2000/svg" xmlns:xlink="http://www.w3.org/1999/xlink" viewBox="0 0 202 153"><defs><style>.cls-1{fill:#edb5f7;}.cls-2{fill:#ffcd85;}.cls-3{fill:#7462ff;}.cls-4{fill:#d54cec;}.cls-5{fill:#603f18;}.cls-6{fill:#bdb4ff;stroke:#7462ff;stroke-miterlimit:10;}.cls-7{filter:url(#drop-shadow-7);}.cls-7,.cls-8,.cls-9{fill:#f6dcfb;}.cls-8{filter:url(#drop-shadow-6);}.cls-9{filter:url(#drop-shadow-5);}</style><filter id="drop-shadow-5" filterUnits="userSpaceOnUse"><feOffset dx="2" dy="2"/><feGaussianBlur result="blur" stdDeviation="2"/><feFlood flood-color="#232323" flood-opacity=".2"/><feComposite in2="blur" operator="in"/><feComposite in="SourceGraphic"/></filter><filter id="drop-shadow-6" filterUnits="userSpaceOnUse"><feOffset dx="2" dy="2"/><feGaussianBlur result="blur-2" stdDeviation="2"/><feFlood flood-color="#232323" flood-opacity=".2"/><feComposite in2="blur-2" operator="in"/><feComposite in="SourceGraphic"/></filter><filter id="drop-shadow-7" filterUnits="userSpaceOnUse"><feOffset dx="2" dy="2"/><feGaussianBlur result="blur-3" stdDeviation="2"/><feFlood flood-color="#232323" flood-opacity=".2"/><feComposite in2="blur-3" operator="in"/><feComposite in="SourceGraphic"/></filter></defs><path class="cls-9" d="m111.37,101.13c1.82-.08,4-.13,6.63-.13.43,0,.78,0,1,0-.75-4.24-1.45-7.99-2.06-11.17-1.92,3.36-3.78,4.43-4.94,8.17-.33,1.08-.53,2.13-.63,3.13Z"/><path class="cls-8" d="m111.06,62.59c.01-.11.03-.21.04-.32-.03.01-.05.03-.07.05l.03.27Z"/><path class="cls-7" d="m195.82,42.06c-4.22-17.2-32.1-25.23-62.27-17.94-.48.12-.97.24-1.45.36-4.47-12.96-19.37-22.48-37.05-22.48-19.51,0-35.62,11.58-38.09,26.57-5.6-4.44-12.52-7.06-20-7.06C18.2,21.51,3,37.99,3,58.32c0,19.09,13.41,34.79,30.56,36.63-1.89,20.38,10.06,40.53,30.56,48.6,23.89,9.39,50.66-1.06,61.22-23.41,4.83,8.95,13.02,15.17,22.79,16.08,16.95,1.58,32.24-13.44,34.14-33.53.97-10.33-1.78-19.99-6.98-27.15,14.91-9.33,23.35-22.01,20.54-33.49Zm-108.58-1.29l1.26-2.55,1.26,2.55,2.81.41-2.04,1.98.48,2.8-2.52-1.32-2.52,1.32.48-2.8-2.04-1.98,2.81-.41Zm-9,0l1.26-2.55,1.26,2.55,2.81.41-2.04,1.98.48,2.8-2.52-1.32-2.52,1.32.48-2.8-2.04-1.98,2.81-.41Zm-9,0l1.26-2.55,1.26,2.55,2.81.41-2.04,1.98.48,2.8-2.52-1.32-2.52,1.32.48-2.8-2.04-1.98,2.81-.41Zm-9,0l1.26-2.55,1.26,2.55,2.81.41-2.04,1.98.48,2.8-2.52-1.32-2.52,1.32.48-2.8-2.04-1.98,2.81-.41Zm58.58,70.13c-2.5.31-8.33,1.04-12.8.43l-11.02,3.67-34.25-1.27-3.75-24.73h22.92c1.1-2.93,3.06-6.57,5.66-10.29,1.82-2.6,3.72-4.88,5.51-6.72-1.24-2.83-.58-10.97.74-17.17,1.31-6.09,2.32-10.49,6.16-12.83.08-.05.15-.08.23-.13.62-1.82,5.52-4.01,9.94-2.99,4.34.44,9.56,2.16,12.38,6.17,1.32,1.87,1.71,5.25,2.46,11.94.9,8.08,1.32,12.2,0,16-.02.07-.06.14-.08.22,1.68,2.96,3.46,7.31,5.08,13.78,1.23,4.92,2.63,12.08,3,21-2.59.92-6.81,2.23-12.18,2.9Z"/><path class="cls-5" d="m96.03,67.95c.33-.35.74-.7,1.31-1.03,1.63-.95,2.85.18,4.68-.7.25-.12.78-.41.99-.22.04.03.05.09.07.13.13-.59.27-1.18.4-1.77-8.27.56-7.47-6.29-7.47-12.36,0-3.27,1.09-6.23,2.86-8.39-.32-.36-.56-.74-.67-1.14-.01-.04-.03-.12-.03-.24,0-.11.03-.23.07-.35-.08.04-.15.08-.23.13-3.85,2.34-4.86,6.74-6.16,12.83-1.33,6.19-1.98,14.34-.74,17.17,1.82-1.86,3.52-3.27,4.93-4.04Z"/><path class="cls-2" d="m103,67c-.07.29-.5,2.2,0,4,.13.47.4,1.21,1,2,2.13-.44,3.32-1.32,4-2,.29-.3,1.5-1.57,2.64-3.41.06-1.58.18-3.13.36-4.59.02-.14.04-.27.06-.41l-.03-.27s.05-.03.07-.05c.87-6.1,2.45-7.71,1.38-11.3-.11-.36-.24-.7-.38-1.03-1.47-.54-3.64-1.57-7.11-2.94-1.68-.67-4.74-1.84-6.14-3.39-1.77,2.16-2.86,5.12-2.86,8.39,0,6.07-.8,12.92,7.47,12.36-.13.59-.27,1.18-.4,1.77.08.23,0,.59-.07.87Z"/><path class="cls-1" d="m90,78c1.49-2.68,3.15-2.25,4-5,.48-1.56.39-3.1,1.72-4.7.09-.11.2-.23.3-.34-1.41.77-3.12,2.18-4.93,4.04-1.79,1.84-3.69,4.12-5.51,6.72-2.6,3.71-4.57,7.35-5.66,10.29h8.08c2.73-2.69-.51-6.49,2-11Z"/><path class="cls-4" d="m114.25,83.02c-2.78-.73-3.86-8.29-3.6-15.43-1.14,1.84-2.35,3.11-2.64,3.41-.68.68-1.87,1.56-4,2-.6-.79-.87-1.53-1-2-.5-1.8-.07-3.71,0-4,.07-.28.15-.64.07-.87-.02-.05-.03-.1-.07-.13-.21-.19-.74.1-.99.22-1.83.89-3.05-.25-4.68.7-.56.33-.97.68-1.31,1.03-.11.11-.21.23-.3.34-1.33,1.6-1.24,3.15-1.72,4.7-.85,2.75-2.51,2.32-4,5-2.51,4.51.73,8.31-2,11h3.25l2.07,14.38c.94-.24,2.02-.38,3.17-.38,1.74,0,3.78,0,5.21.34.1-.12.19-.24.29-.34.61-.64,1.79-1.53,9.37-1.87.1-1.01.29-2.06.63-3.13,1.16-3.75,3.01-4.81,4.94-8.17-.34-1.8-.66-3.42-.94-4.83-.14-.72-.28-1.42-.42-2.1-.47.17-.93.22-1.34.11Z"/><path class="cls-3" d="m100.5,108.51c-.11-.25-.18-.52-.22-.79-.84.19-1.9.28-3.27.28-1.05,0-2.09-.03-3.03-.11l1.03,7.11,11.02-3.67c-2.63-.36-4.79-1.18-5.53-2.81Z"/><path class="cls-2" d="m93.33,103.38l.65,4.5c.94.08,1.97.11,3.03.11,1.37,0,2.43-.09,3.27-.28-.24-1.5.49-3.23,1.43-4.38-1.42-.34-3.47-.34-5.21-.34-1.15,0-2.23.14-3.17.38Z"/><polygon class="cls-6" points="93.33 103.38 91.25 89 88 89 79.92 89 57 89 60.75 113.73 95 115 93.97 107.89 93.33 103.38"/><path class="cls-1" d="m122.92,73.22c-1.52,4.23-4.77,8.79-7.34,9.69.14.68.27,1.38.42,2.1.28,1.41.59,3.03.94,4.83.61,3.18,1.31,6.94,2.06,11.17-.22,0-.57,0-1,0-2.63,0-4.81.05-6.63.13-7.58.34-8.76,1.23-9.37,1.87-.1.1-.2.23-.29.34-.94,1.15-1.67,2.88-1.43,4.38.04.27.11.54.22.79.74,1.64,2.9,2.45,5.53,2.81,4.47.61,10.3-.11,12.8-.43,5.37-.67,9.59-1.98,12.18-2.9-.37-8.92-1.77-16.08-3-21-1.62-6.48-3.4-10.83-5.08-13.78Z"/><path class="cls-5" d="m98.19,42.46c.11.4.35.78.67,1.14,1.4,1.56,4.46,2.73,6.14,3.39,3.47,1.38,5.63,2.4,7.11,2.94-2.8-6.72-11.62-8.32-11.11-9.94.29-.91,3.4-1.5,7.17-1.11-4.42-1.02-9.32,1.16-9.94,2.99-.04.12-.07.23-.07.35,0,.12.02.2.03.24Z"/><path class="cls-5" d="m101,40c-.51,1.62,8.31,3.22,11.11,9.94.14.33.27.67.38,1.03,1.07,3.59-.51,5.2-1.38,11.3-.01.1-.03.21-.04.32-.02.14-.04.27-.06.41-.18,1.46-.3,3.01-.36,4.59-.25,7.14.83,14.7,3.6,15.43.41.11.86.05,1.34-.11,2.57-.9,5.82-5.45,7.34-9.69.03-.07.06-.14.08-.22,1.32-3.8.9-7.92,0-16-.74-6.68-1.14-10.07-2.46-11.94-2.82-4.01-8.04-5.74-12.38-6.17-3.77-.38-6.88.21-7.17,1.11Z"/><polygon class="cls-4" points="85.98 45.96 88.5 44.64 91.02 45.96 90.54 43.16 92.57 41.18 89.76 40.77 88.5 38.22 87.24 40.77 84.43 41.18 86.46 43.16 85.98 45.96"/><polygon class="cls-4" points="76.98 45.96 79.5 44.64 82.02 45.96 81.54 43.16 83.57 41.18 80.76 40.77 79.5 38.22 78.24 40.77 75.43 41.18 77.46 43.16 76.98 45.96"/><polygon class="cls-4" points="67.98 45.96 70.5 44.64 73.02 45.96 72.54 43.16 74.57 41.18 71.76 40.77 70.5 38.22 69.24 40.77 66.43 41.18 68.46 43.16 67.98 45.96"/><polygon class="cls-4" points="58.98 45.96 61.5 44.64 64.02 45.96 63.54 43.16 65.57 41.18 62.76 40.77 61.5 38.22 60.24 40.77 57.43 41.18 59.46 43.16 58.98 45.96"/></svg>