<svg width="190" height="15" viewBox="0 0 190 15" fill="none" xmlns="http://www.w3.org/2000/svg">
<mask id="mask0_34_1728" style="mask-type:luminance" maskUnits="userSpaceOnUse" x="0" y="1" width="128" height="12">
<path d="M127.798 1.69653H0V12.1394H127.798V1.69653Z" fill="white"/>
</mask>
<g mask="url(#mask0_34_1728)">
<mask id="mask1_34_1728" style="mask-type:luminance" maskUnits="userSpaceOnUse" x="0" y="1" width="11" height="12">
<path d="M0 1.69653H10.3246V12.1393H0V1.69653Z" fill="white"/>
</mask>
<g mask="url(#mask1_34_1728)">
<path d="M0 6.94578C0 3.95173 2.23464 1.6958 5.47671 1.6958C8.03232 1.6958 9.66777 2.97291 10.1789 4.73223H9.05422C8.58708 3.66824 7.6525 2.68902 5.47671 2.68902C2.89145 2.68902 1.13913 4.40596 1.13913 6.94578C1.13913 9.42884 2.71654 11.1457 5.47671 11.1457C7.52121 11.1457 8.68917 10.2517 9.18586 9.42884V7.39961H5.43267V6.43478H10.2665V9.64157C9.72624 10.7339 8.07594 12.139 5.47671 12.139C2.07373 12.139 0 9.91104 0 6.94578Z" fill="#141414"/>
</g>
<mask id="mask2_34_1728" style="mask-type:luminance" maskUnits="userSpaceOnUse" x="16" y="1" width="11" height="12">
<path d="M16.119 1.69653H26.865V12.1393H16.119V1.69653Z" fill="white"/>
</mask>
<g mask="url(#mask2_34_1728)">
<path d="M21.4679 11.146C18.9998 11.146 17.2764 9.42909 17.2764 6.91764C17.2764 4.4062 18.9998 2.68926 21.4679 2.68926C23.9358 2.68926 25.6589 4.4062 25.6589 6.91764C25.6589 9.42909 23.9358 11.146 21.4679 11.146ZM21.4679 1.69604C18.3863 1.69604 16.1372 3.92359 16.1372 6.91764C16.1372 9.91128 18.3863 12.1392 21.4679 12.1392C24.5494 12.1392 26.7984 9.91128 26.7984 6.91764C26.7984 3.92359 24.5494 1.69604 21.4679 1.69604Z" fill="#141414"/>
</g>
<mask id="mask3_34_1728" style="mask-type:luminance" maskUnits="userSpaceOnUse" x="32" y="1" width="12" height="12">
<path d="M32.3435 1.69653H43.0896V12.1393H32.3435V1.69653Z" fill="white"/>
</mask>
<g mask="url(#mask3_34_1728)">
<path d="M37.6787 11.146C35.2107 11.146 33.4872 9.42909 33.4872 6.91764C33.4872 4.4062 35.2107 2.68926 37.6787 2.68926C40.1467 2.68926 41.8698 4.4062 41.8698 6.91764C41.8698 9.42909 40.1467 11.146 37.6787 11.146ZM37.6787 1.69604C34.5971 1.69604 32.3481 3.92359 32.3481 6.91764C32.3481 9.91128 34.5971 12.1392 37.6787 12.1392C40.7598 12.1392 43.0089 9.91128 43.0089 6.91764C43.0089 3.92359 40.7598 1.69604 37.6787 1.69604Z" fill="#141414"/>
</g>
<path d="M53.056 10.8906H50.909V2.94488H53.0851C55.9622 2.94488 57.5099 4.56226 57.5099 6.88936C57.5099 9.24486 55.9622 10.8906 53.056 10.8906ZM53.2021 1.95166H49.8283V11.8839H53.1728C56.5021 11.8839 58.6635 9.82626 58.6635 6.88936C58.6635 3.98048 56.5021 1.95166 53.2021 1.95166Z" fill="#141414"/>
<path d="M65.7901 11.8839H66.8713V1.95166H65.7901V11.8839Z" fill="#141414"/>
<path d="M75.4142 1.95166H82.4535V2.94488H76.4949V6.43514H82.1026V7.39996H76.4949V10.8906H82.5119V11.8839H75.4142" fill="#141414"/>
<path d="M94.3846 10.8906H91.0549V7.39996H94.3111C96.1079 7.39996 97.1738 7.8402 97.1738 9.1173C97.1738 10.3941 96.0937 10.8906 94.3846 10.8906ZM91.0549 2.94488H94.1357C95.8014 2.94488 96.8088 3.35632 96.8088 4.77497C96.8088 6.12326 95.6259 6.43514 94.0338 6.43514H91.0549V2.94488ZM96.2541 6.91775C97.1446 6.66265 97.9182 5.98131 97.9182 4.7042C97.9182 2.80293 96.488 1.95166 94.2384 1.95166H89.989V11.8839H94.3554C96.7211 11.8839 98.2832 10.9758 98.2832 9.15929C98.2832 7.88258 97.4804 7.10208 96.2541 6.91775Z" fill="#141414"/>
<mask id="mask4_34_1728" style="mask-type:luminance" maskUnits="userSpaceOnUse" x="103" y="1" width="12" height="12">
<path d="M103.667 1.69653H114.413V12.1393H103.667V1.69653Z" fill="white"/>
</mask>
<g mask="url(#mask4_34_1728)">
<path d="M109.003 11.146C106.535 11.146 104.812 9.42909 104.812 6.91764C104.812 4.4062 106.535 2.68926 109.003 2.68926C111.471 2.68926 113.194 4.4062 113.194 6.91764C113.194 9.42909 111.471 11.146 109.003 11.146ZM109.003 1.69604C105.922 1.69604 103.673 3.92359 103.673 6.91764C103.673 9.91128 105.922 12.1392 109.003 12.1392C112.084 12.1392 114.333 9.91128 114.333 6.91764C114.333 3.92359 112.084 1.69604 109.003 1.69604Z" fill="#141414"/>
</g>
<mask id="mask5_34_1728" style="mask-type:luminance" maskUnits="userSpaceOnUse" x="118" y="1" width="10" height="11">
<path d="M118.838 1.90112H127.798V11.9325H118.838V1.90112Z" fill="white"/>
</mask>
<g mask="url(#mask5_34_1728)">
<path d="M126.543 11.8839L123.329 7.65546L120.102 11.8839H118.875L122.716 6.84698L118.992 1.95166H120.248L123.344 6.02409L126.454 1.95166H127.682L123.958 6.83258L127.798 11.8839" fill="#141414"/>
</g>
</g>
<rect x="137.976" width="52.0238" height="14.1369" rx="4" fill="#BDB4FF"/>
<path d="M144.545 3.7H145.544L147.596 6.868L149.648 3.7H150.647V10H149.567V5.77L147.596 8.767L145.625 5.77V10H144.545V3.7ZM154.14 4.726V6.256H156.66V7.282H154.14V8.974H156.93V10H153.06V3.7H156.876V4.726H154.14ZM159.054 3.7H160.053L162.105 6.868L164.157 3.7H165.156V10H164.076V5.77L162.105 8.767L160.134 5.77V10H159.054V3.7ZM167.569 10V3.7H169.612C170.638 3.7 171.619 4.177 171.619 5.5C171.619 6.265 171.052 6.634 170.962 6.661C171.052 6.679 171.943 7.003 171.943 8.137C171.943 9.244 171.025 10 169.837 10H167.569ZM169.801 8.974C170.395 8.974 170.845 8.731 170.845 8.137C170.845 7.543 170.395 7.3 169.801 7.3H168.649V8.974H169.801ZM168.649 6.274H169.576C170.179 6.274 170.521 6.049 170.521 5.5C170.521 4.951 170.107 4.726 169.576 4.726H168.649V6.274ZM175.038 4.726V6.256H177.558V7.282H175.038V8.974H177.828V10H173.958V3.7H177.774V4.726H175.038ZM179.951 10V3.7H182.021C183.272 3.7 184.109 4.51 184.109 5.662C184.109 6.607 183.605 7.327 182.705 7.552L184.28 10H183.02L181.526 7.624H181.031V10H179.951ZM181.886 6.598C182.579 6.598 183.011 6.283 183.011 5.662C183.011 5.041 182.579 4.726 181.886 4.726H181.031V6.598H181.886Z" fill="#141414"/>
</svg>
