<?xml version="1.0" encoding="UTF-8"?><svg id="Layer_1" xmlns="http://www.w3.org/2000/svg" xmlns:xlink="http://www.w3.org/1999/xlink" viewBox="0 0 202 153"><defs><style>.cls-1,.cls-2{fill:#e3e0ff;}.cls-3{fill:#fffff8;}.cls-4{fill:#ffcd85;}.cls-5{fill:#7462ff;}.cls-6{fill:#bdb4ff;}.cls-7{fill:#d54cec;}.cls-8{fill:#e0b479;}.cls-9{fill:#141414;}.cls-2{filter:url(#drop-shadow-10);}</style><filter id="drop-shadow-10" filterUnits="userSpaceOnUse"><feOffset dx="2" dy="2"/><feGaussianBlur result="blur" stdDeviation="2"/><feFlood flood-color="#232323" flood-opacity=".2"/><feComposite in2="blur" operator="in"/><feComposite in="SourceGraphic"/></filter></defs><path class="cls-2" d="m197.6,41.8c-4.22-17.2-32.1-25.23-62.27-17.94-.48.12-.97.24-1.45.36-4.47-12.96-19.37-22.48-37.05-22.48-19.51,0-35.62,11.58-38.09,26.57-5.6-4.44-12.52-7.06-20-7.06-18.76,0-33.96,16.48-33.96,36.81,0,19.09,13.41,34.79,30.56,36.63-1.89,20.38,10.06,40.53,30.56,48.6,23.89,9.39,50.66-1.06,61.22-23.41,4.83,8.95,13.02,15.17,22.79,16.08,16.95,1.58,32.24-13.44,34.14-33.53.97-10.33-1.78-19.99-6.98-27.15,14.91-9.33,23.35-22.01,20.54-33.49Z"/><ellipse class="cls-7" cx="131.65" cy="45.34" rx="6.98" ry="3.6" transform="translate(10.57 114.08) rotate(-48.59)"/><rect class="cls-4" x="74.52" y="105.67" width="36.21" height="26.25" rx="3.69" ry="3.69" transform="translate(9.46 -6.81) rotate(4.43)"/><path class="cls-4" d="m123.53,86.54c4.32,9.42-3.59,22.68-13.69,28.07-11.44,6.1-28.98,3.85-33.64-6.56-4.18-9.36,3.53-21.98,12.89-27.36,11.57-6.66,29.67-4.56,34.45,5.86Z"/><path class="cls-8" d="m131.07,53.26l-10.2,12.58c-2.39,2.95-6.17,3.9-8.39,2.1h0c-2.22-1.8-2.08-5.69.32-8.64,4.13-4.63,8.27-9.27,12.4-13.9,1.04-1.17,2.79-2.84,5.14-3.84.46-.2.9-.35,1.32-.47,2.27-.7,3.09-.12,3.37.15,1.52,1.46.23,6.36-3.96,12.01Z"/><rect class="cls-5" x="77.02" y="26" width="48.41" height="80.4" rx="3.32" ry="3.32"/><rect class="cls-3" x="80.3" y="29.28" width="41.67" height="73.84" rx="3.32" ry="3.32"/><rect class="cls-5" x="95.89" y="28.46" width="10.67" height="2.46" rx=".95" ry=".95"/><rect class="cls-6" x="90.15" y="59.64" width="22.15" height="13.99"/><polygon class="cls-1" points="101.22 67.22 101.22 67.22 90.15 59.64 112.3 59.64 101.22 67.22"/><path class="cls-7" d="m102.38,65.4c-.32-.21-.87.03-1.38.55-.47-.54-1-.8-1.33-.61-.44.25-.34,1.25.38,2.19.39.51.61.75.77.83,0,0,.02,0,.02.01,0,0,0,0,0,0,.02,0,.03.01.05.01,0,0,0,0,.01,0,0,0,.02,0,.03,0,.01,0,.02,0,.03,0,.01,0,.02,0,.03,0h0c.19-.06.46-.32.87-.85.77-.97.91-1.84.49-2.12Z"/><path class="cls-9" d="m88.63,53.19h.43v.09h-2.05v-.09h.43v-1.92h-1.27v1.92h.43v.09h-2.05v-.09h.43v-3.51l-.48-.29h2.14l-.48.29v1.49h1.27v-1.49l-.48-.29h2.14l-.48.29v3.51Z"/><path class="cls-9" d="m91.85,53.19v.09h-1.35v-.31c-.25.21-.54.36-.83.36-.35,0-.59-.2-.59-.54,0-.5.53-.82,1.42-.92,0-.59-.24-.89-.65-.89-.24,0-.41.07-.59.21l-.03-.03c.37-.41.77-.63,1.3-.63.68,0,1.04.39,1.04,1.17v1.49h.27Zm-1.35-.3v-.95c-.32.09-.45.3-.45.58,0,.25.11.39.32.39.03,0,.08,0,.12-.02Z"/><path class="cls-9" d="m95.29,51.8c0,.95-.52,1.52-1.25,1.52-.25,0-.46-.08-.65-.19v1.4h.43v.09h-1.78v-.09h.27v-3.31l-.31-.26,1.38-.48v.53c.29-.29.62-.48.94-.48.54,0,.96.44.96,1.28Zm-1.15.31c0-.72-.16-1.08-.52-1.08-.08,0-.15.02-.23.05v1.96c.08.05.17.08.26.08.28,0,.48-.37.48-1.01Z"/><path class="cls-9" d="m98.83,51.8c0,.95-.52,1.52-1.25,1.52-.25,0-.46-.08-.65-.19v1.4h.43v.09h-1.78v-.09h.27v-3.31l-.31-.26,1.38-.48v.53c.29-.29.62-.48.94-.48.54,0,.96.44.96,1.28Zm-1.15.31c0-.72-.16-1.08-.52-1.08-.08,0-.15.02-.23.05v1.96c.08.05.17.08.26.08.28,0,.48-.37.48-1.01Z"/><path class="cls-9" d="m102.04,50.63l-.36.26-1.17,2.38-.64,1.41-1.02-.72,1.57-.72-1.27-2.35-.37-.26h1.89l-.36.26.6,1.42.51-1.42-.41-.26h1.04Z"/><path class="cls-9" d="m103.31,53.19h.27v-1.97l-.31-.26,1.38-.48v2.71h.27v.09h-1.62v-.09Zm.21-3.41c0-.36.22-.6.6-.6s.6.24.6.6-.22.6-.6.6-.6-.24-.6-.6Z"/><path class="cls-9" d="m108.47,53.19v.09h-1.56v-.09h.22v-1.62c0-.42-.1-.56-.32-.56-.11,0-.22.03-.32.08v2.1h.22v.09h-1.56v-.09h.27v-1.97l-.31-.26,1.38-.48v.54c.35-.3.66-.51,1.03-.51.46,0,.69.29.69.83v1.85h.27Z"/><path class="cls-9" d="m111.5,50.63l-.36.26-1.2,2.46h-.14l-1.14-2.46-.36-.26h1.88l-.36.26.53,1.45.52-1.45-.38-.26h1.01Z"/><path class="cls-9" d="m111.6,53.19h.27v-1.97l-.31-.26,1.38-.48v2.71h.27v.09h-1.62v-.09Zm.21-3.41c0-.36.22-.6.6-.6s.6.24.6.6-.22.6-.6.6-.6-.24-.6-.6Z"/><path class="cls-9" d="m115.7,52.78c-.2.32-.55.55-1.05.55-.64,0-.89-.38-.89-1.08v-1.53h-.42s1.49-1.18,1.49-1.18v1.09h.76v.09h-.76v1.25c0,.62.15.86.54.86.12,0,.21-.02.32-.06h0Z"/><path class="cls-9" d="m118.25,52.79c-.23.34-.59.54-1.09.54-.76,0-1.38-.53-1.38-1.36,0-.79.53-1.44,1.39-1.44.51,0,.86.3.86.69,0,.45-.34.84-.99,1.08.31.3.69.5,1.06.5.05,0,.11,0,.16-.02h0Zm-1.8-1.76c0,.45.23.9.55,1.23.15-.19.21-.41.21-.68,0-.47-.31-.87-.54-.87-.14,0-.22.12-.22.32Z"/><path d="m91.6,80v2.17c0,.9.14,1.2.55,1.2s.83-.65.83-1.58c0-1.83-1.38-3.09-3.18-3.09s-3.01,1.4-3.01,3.04c0,1.84,1.4,3.09,3.19,3.09.67,0,1.22-.13,1.73-.44l.08.12c-.48.31-1.1.49-1.81.49-1.92,0-3.39-1.3-3.39-3.26,0-1.75,1.18-3.21,3.2-3.21s3.38,1.31,3.38,3.26c0,1.14-.49,1.89-1.58,1.89-.74,0-1.21-.25-1.33-.78-.36.4-.74.63-1.18.63-.75,0-1.25-.6-1.25-1.65,0-1.13.65-1.89,1.58-1.89.39,0,.64.13.87.29l1.3-.28h0Zm-1.35,2.83c0-.07-.02-.14-.02-.21v-2.25c-.09-.07-.21-.1-.33-.1-.36,0-.61.43-.61,1.27,0,.91.2,1.37.66,1.37.11,0,.2-.03.31-.08Z"/><path d="m98.47,83.78c-.13,0-.25-.03-.37-.08-.27-.12-.4-.35-.49-.51-.29-.47-.78-.78-1.36-.86-.57-.08-1.14.08-1.51.42l-.68-.73c.6-.55,1.44-.8,2.33-.67.88.12,1.63.59,2.05,1.29.03.06.06.1.08.13.02-.02.08-.06.16-.14l.22-.2c.78-.69,1.66-1.48,2.78-1.72,1.29-.27,2.7.3,3.45,1.38l.06.1c.07.1.16.24.22.26.05.02.21-.05.34-.23.07-.09.13-.18.19-.28.14-.22.3-.46.54-.66.6-.49,1.49-.5,2.45-.05.17.08.34.17.5.26.41.22.8.43,1.19.47.35.03.76-.05,1.18-.14.79-.17,1.69-.36,2.4.28l-.67.74c-.31-.28-.79-.2-1.53-.05-.48.1-.99.21-1.49.16-.59-.06-1.09-.32-1.56-.58-.15-.08-.3-.16-.46-.24-.45-.21-1.05-.35-1.39-.07-.12.1-.22.25-.33.42-.08.12-.15.24-.24.35-.41.53-1.01.74-1.51.54-.34-.14-.53-.43-.67-.64-.58-.84-1.57-1.23-2.48-1.05-.87.18-1.61.84-2.32,1.49l-.22.2c-.31.27-.6.41-.88.41Z"/><path class="cls-4" d="m129.5,75.41c-7.03,4.09-12.51,6.48-14.28,6.68-1.71.19-2.98-.45-2.98-.45-.48-.24-.87-.54-1.15-.8-.19-.24-.37-.48-.56-.71-.31-.5-.45-.96-.51-1.34-.34-2.06,1.28-4.29,3.98-5.7,1.74-1.16,4.25-2.65,7.48-3.92,2.52-.99,6.9-2.72,7.91-1.33.47.64.19,1.86-.84,3.65.28-1.22.56-2.43.84-3.65.17.21,2.11,2.57,1.46,5.26-.29,1.19-.96,1.94-1.35,2.32Z"/><path class="cls-4" d="m129.97,84.98c-2.98,1.38-5.45,1.75-7,2.56-3.18,1.66,0,0,0,0-1.14.5-9.56,3.07-10.22,2.82-.47-.27-.84-.58-1.11-.86-.17-.25-.35-.49-.52-.74-.29-.52-.41-.98-.46-1.36-.27-2.08,2.22-4.32,4.93-5.6,1.75-1.08,3.46-2.33,6.68-3.45,2.52-.87,6.89-2.38,7.84-.94.44.66.12,1.87-.95,3.61.32-1.2.63-2.41.95-3.61.16.21,2,2.68,1.27,5.33-.32,1.17-1.01,1.89-1.41,2.25Z"/><path class="cls-4" d="m128.95,91.64c-5.76,4.18-10.32,6.75-11.84,7.08-1.47.32-2.63-.12-2.63-.12-.44-.17-.8-.39-1.07-.59-.18-.19-.36-.38-.55-.57-.31-.41-.48-.79-.57-1.12-.48-1.76.73-3.84,2.96-5.31q2.79-1.84,6.16-4.08c1.98-1.31,5.77-2.99,6.77-1.87.46.52.33,1.6-.41,3.25.14-1.08.27-2.17.41-3.25.17.16,2.06,2.05,1.74,4.44-.14,1.06-.66,1.77-.97,2.13Z"/><path class="cls-4" d="m75.13,59.9c1.74,5.16,3.48,10.33,5.23,15.49.17.45,2.06,5.54-.55,9.55-1.26,1.94-3.01,2.76-3.89,3.09h0c-1.57-.24-3.23-.57-4.97-.99-.97-.23-1.91-.49-2.81-.75-.69-6.61-1.39-13.21-2.08-19.82-3.95-5.29-5.87-9.88-4.59-11.57.24-.32.65-.6,1.37-.7.37-.15,5.13-1.99,9.15,1.24,1.87,1.51,2.76,3.45,3.14,4.46Z"/><path class="cls-4" d="m87.69,108.04c-.77,3.42-1.37,5.93-3.12,6.47-5.47,1.66-16.47-17.76-16.57-30.5-.04-5.14,2-7.52,2.46-8.03,1.49-1.65,4.2-3.34,6.72-3.06,7.7.83,13.94,19.83,10.51,35.13Z"/><path class="cls-7" d="m64.71,59.64c1.45,3.08,2.5,6.33,1.64,6.56-.92.25-3.49-3.58-4.1-4.92-.19-.42-2.74-6-1.73-6.63.73-.46,2.89,2.23,4.19,4.99Z"/><path class="cls-7" d="m112.5,75.58c2.62-1.32,3.72-.31,4.4,1.14s.69,2.79-1.93,4.11-5.29,1.21-5.97-.24.89-3.69,3.5-5.01Z"/><path class="cls-7" d="m113.03,85.13c2.28-.96,3.05-.01,3.43,1.29s.22,2.46-2.06,3.42-4.44.68-4.82-.62,1.16-3.13,3.45-4.09Z"/><path class="cls-7" d="m114.42,94.04c1.92-1.15,2.89-.48,3.57.54s.81,2.01-1.11,3.16c-1.92,1.15-4.03,1.25-4.71.23s.33-2.78,2.26-3.92Z"/></svg>