<?xml version="1.0" encoding="UTF-8"?><svg id="Layer_1" xmlns="http://www.w3.org/2000/svg" xmlns:xlink="http://www.w3.org/1999/xlink" viewBox="0 0 202 153"><defs><style>.cls-1,.cls-2{fill:#edb5f7;}.cls-3{fill:#932c0c;}.cls-4{fill:#333;}.cls-5{fill:#b20909;}.cls-6{fill:#d8a977;}.cls-7{fill:#d8ab71;}.cls-2,.cls-8{stroke:#7462ff;stroke-miterlimit:10;}.cls-8{fill:#cc9dd6;}.cls-9{fill:#e3e0ff;filter:url(#drop-shadow-12);}</style><filter id="drop-shadow-12" filterUnits="userSpaceOnUse"><feOffset dx="2" dy="2"/><feGaussianBlur result="blur" stdDeviation="2"/><feFlood flood-color="#232323" flood-opacity=".2"/><feComposite in2="blur" operator="in"/><feComposite in="SourceGraphic"/></filter></defs><path class="cls-9" d="m197.6,43.8c-4.22-17.2-32.1-25.23-62.27-17.94-.48.12-.97.24-1.45.36-4.47-12.96-19.37-22.48-37.05-22.48-19.51,0-35.62,11.58-38.09,26.57-5.6-4.44-12.52-7.06-20-7.06-18.76,0-33.96,16.48-33.96,36.81,0,19.09,13.41,34.79,30.56,36.63-1.89,20.38,10.06,40.53,30.56,48.6,23.89,9.39,50.66-1.06,61.22-23.41,4.83,8.95,13.02,15.17,22.79,16.08,16.95,1.58,32.24-13.44,34.14-33.53.97-10.33-1.78-19.99-6.98-27.15,14.91-9.33,23.35-22.01,20.54-33.49Z"/><path class="cls-1" d="m108.11,59.36c-1.15.06-2.41-4.15-2.88-6.63-.24-1.26-.54-2.77-.87-4.05-.37-2.73-.79-4.8-1.23-6.36-.06-.05-.12-.1-.18-.16-.05-.32-.12-.69-.22-1.11-.19-.82-.48-1.85-.88-3.14.24-1.14,1.43.15,1.84.06,1.1-.23,2.45-.34,3.95,2.91.8,1.74,1.65,4.44,2.53,8.61.99,4.71-.8,9.81-2.04,9.88Z"/><path class="cls-6" d="m101.26,26.05c.31-.54.56-1.2.61-1.81.04-.46.01-.78.19-1.28.48-1.37.47-1.45.42-1.49-.18-.16-1.12.56-1.82,1.58-.96-1.93-1.47-3.91-1.93-3.83-.29.05.11,1.86.31,2.69-.02-.05-.03-.09-.04-.11-.8-2.35-1.38-3.65-1.82-3.48-.39.15.02,1.74.55,3.72-.68-1.09-1.44-2.16-1.68-2.04-.31.15.22,2.21,1.18,3.97.05.1.11.19.16.29-.85-.71-1.61-1.08-1.83-.85-.21.21,1.13,1.66,1.88,2.37,0,0,.9.86,1.71,1.28-.02.33,0,.74.07,1.24,1.03-.15,2.03-.36,3.01-.64-.41-.86-.7-1.34-.95-1.59Z"/><path class="cls-1" d="m107.63,40.87c-1.5-3.25-2.85-3.14-3.95-2.91-.41.08-1.6-1.2-1.84-.06-.01-.03-.02-.07-.03-.1-.88-2.77-1.56-4.96-2.11-6.67-.23-1.13-.4-2.09-.49-2.85,1.03-.15,2.03-.36,3.01-.64.78,1.63,1.99,4.62,4.2,9.98.56,1.36.95,2.42,1.22,3.25Z"/><path class="cls-4" d="m104.68,42.67c-.56.12-1.08.01-1.55-.36-.06-.05-.12-.1-.18-.16-.05-.32-.12-.69-.22-1.11-.19-.82-.48-1.85-.88-3.14.24-1.14,1.43.15,1.84.06,1.1-.23,2.45-.34,3.95,2.91,1.54,4.85-1.51,1.5-2.95,1.8Z"/><path class="cls-7" d="m104.63,48.26c3.72-1.21,5.92-3.96,3.43-7.76s-4.88-8.37-8.6-7.15-5.95,4.1-4.51,8.52,5.96,7.6,9.69,6.39Z"/><path class="cls-6" d="m73.91,117.08c-.79-.13-1.45-.28-1.96-.46-.65,1.06-3.85,1.8-8.12,2.14-4.49.36-6.39-.35-5.7-1.04,1.77-1.77,6.44-2.15,7.28-3.12,2.39-2.77,7.31-4.02,7.38-.92.39-.13.84-.26,1.35-.4.11,1.33-.48,2.48-.24,3.79Z"/><path class="cls-7" d="m136.05,117.14c-1.62.04-7.92.52-8.1-.6-.34-2.18.44-4.26,1.52-5.81.17-1,.48-2.11.8-3.15,1.83-.07,3.52.35,5.38.42-.57,1.24-1.09,2.33-1.58,3.23,2.46,2.53,10.13,3.66,10.38,4.4.57,1.7-2.96,1.37-8.4,1.5Z"/><path class="cls-8" d="m113.96,94.17c-1.1,2.89-3.18,6.46-5.92,10.07-4.81,6.32-7.75,9.19-9.75,10.27h0c-.36.68-.79,1.26-1.28,1.64-1.51,1.17-3.25,1.59-4.38,1.17-1.65.27-3.67.42-6.04.42-5.22,0-9.8-.17-12.67-.65-.24-1.31.35-2.46.24-3.79,2.17-.58,5.44-1.21,10.25-1.9,2.41-.35,4.7-.44,6.68-.33.7-.36,1.48-.74,2.27-1.09.63-4.44,3.54-11.59,7.44-16.53.66-.84,1.33-1.58,1.98-2.22.55,1.31,1.39,2.42,2.54,3.17,2.53,1.65,5.76.99,8.64-.23Z"/><path class="cls-7" d="m107.39,53.91c.7,4.74-1.74,9.37-3.47,9.37s-4.02-3.97-3.12-8.67c1.39-7.28-.69-12.14,2.43-8.32,1.09,1.33,2.43-4.16,4.16,7.63Z"/><path class="cls-7" d="m97.42,24.46c.37-.54.68-1.2.8-1.83.09-.5.09-.84.33-1.37.66-1.43.65-1.52.6-1.57-.18-.19-1.27.49-2.12,1.52-.84-2.17-1.19-4.37-1.7-4.33-.32.02-.07,2.01.07,2.94-.02-.06-.03-.1-.03-.13-.62-2.61-1.12-4.07-1.62-3.94-.44.12-.15,1.88.22,4.06-.62-1.25-1.33-2.47-1.6-2.37-.35.13.02,2.4.87,4.4.05.11.1.22.15.33-.85-.85-1.63-1.32-1.89-1.1-.25.21,1.05,1.9,1.79,2.75,0,0,.7.81,1.44,1.36l.35,1.2c-.06.53-.05,1.27.02,2.19,1.24-.02,2.47-.09,3.69-.24-.6-1.75-.97-2.59-1.31-2.95l-.04-.92Z"/><path class="cls-3" d="m105.66,35.52c0-1.34-2.72-2.43-6.07-2.43-2.21,0-4.14.47-5.2,1.18-2.27.37-3.5,4.4-3.29,9.57.21,5.36,7.63,22.89,10.06,20.81.53-.45,1.04-11.28,1.04-16.65,0-3.07-1.68-7.17-3.57-10.09.32.02.64.03.97.03,3.35,0,6.07-1.09,6.07-2.43Z"/><path class="cls-1" d="m119.71,78.13c-1.51-.19-2.83-.3-3.96-.31-2.42-.88-5.01-1.2-7.28-.53-1.12.33-2.02.86-2.73,1.43.29-.59.38-1.23.32-1.93-.22-2.96-3.03-6.91-4.22-12.48-.06-.28-.28-1.62-.5-3.2-1.2-.24-2.11-4.76-2.36-7.43-.17-1.8-.41-4.06-.75-5.63-.68-3.09-1.09-5.35-1.32-7-.48-1.07-.82-2.66-1.04-4.87-.31-3.16-.65-5.75-.78-7.61,1.24-.02,2.48-.09,3.69-.25.26.75.56,1.67.92,2.8.55,1.71,1.23,3.89,2.11,6.67.01.03.02.07.03.1.4,1.28.69,2.31.88,3.14.14.38.27.8.41,1.27.44,1.56.86,3.63,1.23,6.36.09.63.17,1.3.25,2.01.02.2.04.41.06.62,1.09-.35,2.99.54,6.19,3.65,2.12,2.06,8.32,4.95,8.32,7.63,0,1.29-.79,2.38-1.95,3.16.45.66,1,1.33,1.02,2.15.09,3.29.54,6.04,1.05,8.43.13.62.27,1.22.41,1.8Z"/><path class="cls-7" d="m106.77,41.48l-1.16-1.52c-.32-.42-.24-1.02.18-1.34h0c.42-.32,1.02-.24,1.34.18l2.11,1.51c.32.42-.72,1.03-1.13,1.34h0c-.42.32-1.02.24-1.34-.18Z"/><path class="cls-2" d="m143.24,92.84c-3.39,5.53-5.74,11.13-7.6,15.17-1.86-.07-3.54-.49-5.38-.42.29-.93.6-1.81.83-2.51.15-.44.34-.9.6-1.8.82-2.83.89-5.02.92-5.52.13-2.14,1.56-5.54,3.31-8.46-4.28.58-10.69,1.25-15.57,1.33-.4.26-.83.51-1.27.78-1.31.8-3.14,1.92-5.13,2.76-2.88,1.22-6.1,1.88-8.64.23-1.15-.75-1.99-1.87-2.54-3.17-1.29-3.07-.95-7.2.86-10.09.3-.48.96-1.5,2.11-2.42.71-.57,1.61-1.1,2.73-1.43,2.27-.67,4.86-.35,7.28.53,1.13.01,2.45.12,3.96.31,3.07.38,6.91,1.06,11.54,1.8,6,.97,9.97,2.45,11.13,4.17,1.79,1.51,2.52,6.03.86,8.73Z"/><circle class="cls-5" cx="34" cy="37" r="3"/><path d="m40.11,34.46c.36-.07.88-.11,1.37-.11.76,0,1.26.14,1.6.45.28.25.43.62.43,1.05,0,.73-.46,1.21-1.04,1.41v.02c.43.15.68.54.81,1.12.18.77.31,1.3.43,1.52h-.74c-.09-.16-.21-.63-.37-1.32-.16-.76-.46-1.05-1.11-1.08h-.67v2.4h-.71v-5.46Zm.71,2.52h.73c.76,0,1.25-.42,1.25-1.05,0-.71-.52-1.03-1.27-1.03-.34,0-.59.03-.71.07v2.02Z"/><path d="m47.39,37.32h-2.15v1.99h2.4v.6h-3.11v-5.53h2.99v.6h-2.27v1.75h2.15v.59Z"/><path d="m52.43,39.74c-.26.13-.79.26-1.46.26-1.56,0-2.73-.98-2.73-2.8s1.17-2.91,2.89-2.91c.69,0,1.12.15,1.31.25l-.17.58c-.27-.13-.66-.23-1.12-.23-1.3,0-2.16.83-2.16,2.28,0,1.35.78,2.22,2.13,2.22.43,0,.88-.09,1.17-.23l.15.57Z"/></svg>