<?xml version="1.0" encoding="UTF-8"?><svg id="Layer_1" xmlns="http://www.w3.org/2000/svg" xmlns:xlink="http://www.w3.org/1999/xlink" viewBox="0 0 202 153"><defs><style>.cls-1,.cls-2{fill:#ffe8d7;}.cls-3{fill:#ffb985;}.cls-4,.cls-5{fill:#ff8f3b;}.cls-6{fill:#4b4b4b;}.cls-5{stroke:#4b4b4b;stroke-miterlimit:10;}.cls-2{filter:url(#drop-shadow-8);}</style><filter id="drop-shadow-8" filterUnits="userSpaceOnUse"><feOffset dx="2" dy="2"/><feGaussianBlur result="blur" stdDeviation="2"/><feFlood flood-color="#232323" flood-opacity=".2"/><feComposite in2="blur" operator="in"/><feComposite in="SourceGraphic"/></filter></defs><path class="cls-2" d="m197.6,41.8c-4.22-17.2-32.1-25.23-62.27-17.94-.48.12-.97.24-1.45.36-4.47-12.96-19.37-22.48-37.05-22.48-19.51,0-35.62,11.58-38.09,26.57-5.6-4.44-12.52-7.06-20-7.06-18.76,0-33.96,16.48-33.96,36.81,0,19.09,13.41,34.79,30.56,36.63-1.89,20.38,10.06,40.53,30.56,48.6,23.89,9.39,50.66-1.06,61.22-23.41,4.83,8.95,13.02,15.17,22.79,16.08,16.95,1.58,32.24-13.44,34.14-33.53.97-10.33-1.78-19.99-6.98-27.15,14.91-9.33,23.35-22.01,20.54-33.49Z"/><rect class="cls-4" x="59.23" y="51.68" width="26.68" height="32.75"/><rect class="cls-3" x="57.66" y="53.25" width="29.82" height="32.75"/><polygon class="cls-6" points="59.23 53.25 57.66 53.25 59.23 51.68 59.23 51.68 59.23 53.25"/><polygon class="cls-6" points="85.91 53.25 87.48 53.25 85.91 51.68 85.91 51.68 85.91 53.25"/><path class="cls-6" d="m72.57,45.4c-3.9,0-7.06,3.51-7.06,7.85h1.26c0-3.47,2.53-6.28,5.65-6.28s5.65,2.81,5.65,6.28h1.57c0-4.33-3.16-7.85-7.06-7.85Z"/><path class="cls-6" d="m72.57,45.58c-3.03,0-5.49,2.73-5.49,6.1h.98c0-2.7,1.97-4.88,4.39-4.88s4.39,2.19,4.39,4.88h1.22c0-3.37-2.46-6.1-5.49-6.1Z"/><rect class="cls-4" x="46.41" y="63.69" width="23.91" height="29.34"/><rect class="cls-3" x="45" y="65.09" width="26.72" height="29.34"/><polygon class="cls-6" points="46.41 65.09 45 65.09 46.41 63.69 46.41 63.69 46.41 65.09"/><polygon class="cls-6" points="70.32 65.09 71.72 65.09 70.32 63.69 70.32 63.69 70.32 65.09"/><path class="cls-6" d="m58.36,58.06c-3.5,0-6.33,3.15-6.33,7.03h1.13c0-3.11,2.27-5.63,5.06-5.63s5.06,2.52,5.06,5.63h1.41c0-3.88-2.83-7.03-6.33-7.03Z"/><path class="cls-6" d="m58.36,58.22c-2.72,0-4.92,2.45-4.92,5.47h.88c0-2.42,1.76-4.38,3.94-4.38s3.94,1.96,3.94,4.38h1.09c0-3.02-2.2-5.47-4.92-5.47Z"/><path class="cls-4" d="m137.33,36.05c.25.66-.08,1.4-.74,1.65-.05.02-.1.03-.15.05.29.14.53.38.65.7.25.66-.08,1.4-.74,1.65-.26.1-.54.11-.79.04.03.05.05.11.07.16.25.66-.08,1.4-.74,1.65-.55.21-1.16.01-1.49-.44h0s0,0,0,0c0,0,0,0,0,0,0,.51-.32.99-.83,1.18-.66.25-1.4-.08-1.65-.74h0c-.14.27-.38.51-.7.63-.66.25-1.4-.08-1.65-.74-.1-.26-.11-.54-.04-.79-.05.03-.11.05-.16.07-.66.25-1.4-.08-1.65-.74-.14-.36-.1-.73.06-1.05-.52,0-1.01-.31-1.21-.82-.24-.62.04-1.32.63-1.6-.29-.14-.52-.38-.64-.7-.25-.66.08-1.4.74-1.65.07-.02.13-.04.2-.06-.01-.03-.02-.05-.03-.08-.25-.66.08-1.4.74-1.65.29-.11.6-.11.87-.01,0-.52.31-1.01.82-1.21.45-.17.94-.07,1.28.22.1-.38.38-.71.78-.86.66-.25,1.4.08,1.65.74.01.03.02.05.03.08.14-.16.31-.28.51-.36.66-.25,1.4.08,1.65.74.12.32.11.66-.02.95.04-.02.09-.04.14-.06.66-.25,1.4.08,1.65.74.21.55.01,1.16-.44,1.49.51,0,.99.32,1.18.83Z"/><path class="cls-1" d="m128.34,37.56c-.64-1.69-.04-3.48,1.9-4.21.87-.33,1.63-.41,2.35-.32l.27,2.64h-.02c-1.64-1.34-2.79-1.84-3.45-1.58-.4.15-.59.61-.32,1.33.55,1.45,2.47,3.14,4.3,3.69l-.79-2.08-.97-.33,2.46-.94.8,2.1c-.41.7-1.09,1.28-1.96,1.61-2.09.79-3.88-.08-4.57-1.92Z"/><path class="cls-4" d="m125.29,48.77c0,.57-.46,1.02-1.02,1.02-.04,0-.08,0-.12,0,.18.18.28.43.28.71,0,.57-.46,1.02-1.02,1.02-.23,0-.43-.07-.6-.2,0,.05,0,.09,0,.14,0,.57-.46,1.02-1.02,1.02-.47,0-.87-.32-.99-.76h0s0,0,0,0c0,0,0,0,0,0-.15.38-.52.65-.95.65-.57,0-1.02-.46-1.02-1.02h0c-.18.17-.43.27-.7.27-.57,0-1.02-.46-1.02-1.02,0-.23.07-.43.2-.6-.05,0-.09,0-.14,0-.57,0-1.02-.46-1.02-1.02,0-.31.13-.58.34-.77-.39-.14-.67-.52-.67-.96,0-.53.41-.97.93-1.02-.17-.18-.28-.43-.28-.71,0-.57.46-1.02,1.02-1.02.06,0,.11,0,.16.01,0-.02,0-.04,0-.07,0-.57.46-1.02,1.02-1.02.25,0,.48.09.66.24.14-.39.52-.67.96-.67.39,0,.72.21.9.53.19-.25.49-.42.83-.42.57,0,1.02.46,1.02,1.02,0,.02,0,.05,0,.07.15-.08.31-.12.49-.12.57,0,1.02.46,1.02,1.02,0,.28-.11.52-.28.71.04,0,.08,0,.12,0,.57,0,1.02.46,1.02,1.02,0,.47-.32.87-.76.99.38.15.65.52.65.95Z"/><path class="cls-1" d="m118.19,47.37c0-1.45.96-2.61,2.62-2.61.75,0,1.34.16,1.85.43l-.55,2.05h-.01c-.84-1.48-1.56-2.17-2.13-2.17-.34,0-.62.29-.62.91,0,1.24.96,3.05,2.17,3.98v-1.78l-.63-.52h2.11v1.8c-.51.41-1.17.65-1.93.65-1.79,0-2.88-1.17-2.88-2.73Z"/><path class="cls-4" d="m137.39,54.54c-.28.49-.9.67-1.39.39-.04-.02-.07-.04-.1-.07.06.25.04.52-.1.76-.28.49-.9.67-1.39.39-.2-.11-.34-.27-.43-.46-.02.04-.04.09-.06.13-.28.49-.9.67-1.39.39-.41-.23-.6-.7-.49-1.14h0s0,0,0,0c0,0,0,0,0,0-.32.26-.77.31-1.15.1-.49-.28-.67-.9-.39-1.39h0c-.24.05-.51.02-.75-.11-.49-.28-.67-.9-.39-1.39.11-.2.27-.34.46-.43-.04-.02-.09-.04-.13-.06-.49-.28-.67-.9-.39-1.39.15-.27.4-.44.67-.5-.27-.32-.33-.78-.11-1.16.26-.47.83-.65,1.31-.44-.06-.25-.03-.51.1-.75.28-.49.9-.67,1.39-.39.05.03.09.06.14.09.01-.02.02-.04.03-.06.28-.49.9-.67,1.39-.39.22.12.37.31.46.53.32-.27.78-.33,1.17-.11.34.19.53.54.52.9.29-.13.63-.13.93.04.49.28.67.9.39,1.39-.01.02-.02.04-.04.06.17,0,.33.05.49.13.49.28.67.9.39,1.39-.13.24-.35.4-.59.48.04.01.07.03.11.05.49.28.67.9.39,1.39-.23.41-.7.6-1.14.49.26.32.31.77.1,1.15Z"/><path class="cls-1" d="m131.91,49.82c.71-1.26,2.11-1.8,3.56-.99.65.36,1.09.79,1.4,1.28l-1.48,1.52h-.01c-.01-1.71-.3-2.66-.8-2.94-.3-.17-.68-.05-.98.49-.6,1.08-.66,3.13-.06,4.53l.87-1.55-.3-.76,1.84,1.03-.88,1.57c-.64.11-1.34,0-2-.38-1.56-.87-1.94-2.42-1.17-3.79Z"/><path class="cls-5" d="m149.39,105.32c-2.4-3.17-4.8-6.35-7.2-9.52h-31.2s0,19.2,0,19.2h31.2c2.4-3.23,4.8-6.45,7.2-9.68Z"/><path class="cls-1" d="m120,102.01c0-2.15,1.26-3.87,3.55-3.89,2.27,0,3.53,1.72,3.53,3.89s-1.26,3.96-3.53,3.96-3.55-1.77-3.55-3.96Zm4.35-.02c0-2.41-.22-3.63-.81-3.63-.62,0-.81,1.22-.81,3.61s.21,3.75.81,3.75.81-1.29.81-3.73Zm6.49-3.53h.71l-6.83,12.39h-.69l6.82-12.39Zm-2.34,8.78c0-2.15,1.26-3.87,3.55-3.89,2.27,0,3.53,1.72,3.53,3.89s-1.26,3.96-3.53,3.96-3.55-1.77-3.55-3.96Zm4.35-.02c0-2.41-.22-3.63-.81-3.63-.62,0-.81,1.22-.81,3.61s.21,3.75.81,3.75.81-1.29.81-3.73Z"/><circle class="cls-6" cx="145.79" cy="105.4" r="1.2"/><path class="cls-6" d="m115.01,34.32l-7.62,3.07-1.05-1.98,5.73-1.63c-3.72-1.63-8.95-1.9-14.43-.41-5.68,1.55-10.37,4.64-13.03,8.19-.27-.18-.54-.31-.81-.41,2.31-4.22,7.56-8.07,14.13-9.85,5.61-1.51,10.96-1.19,14.72.55l-1.86-4.5,1.58-1.35,2.64,8.32Z"/><path class="cls-6" d="m141.88,88.13l-.62-8.11,2.04-.55-.13,5.95c2.47-3.24,4.15-8.25,4.35-13.92.19-5.88-1.26-11.16-3.67-14.57.23-.22.42-.45.58-.69,3.11,3.23,5.08,9.23,4.84,16.02-.21,5.81-1.97,10.93-4.54,14.17l4.5-.76.76,1.85-8.11.62Z"/><path class="cls-6" d="m76.89,92.85l7.77,2.42-.24,2.1-5.48-2.32c2.09,3.49,6.13,6.9,11.33,9.18,5.4,2.35,10.84,2.95,14.9,1.97.12.29.26.56.43.8-4.14,1.7-10.45,1.31-16.68-1.41-5.32-2.33-9.43-5.86-11.49-9.45l-.96,4.47-2,.02,2.42-7.77Z"/></svg>