<?xml version="1.0" encoding="UTF-8"?><svg id="Layer_1" xmlns="http://www.w3.org/2000/svg" xmlns:xlink="http://www.w3.org/1999/xlink" viewBox="0 0 202 153"><defs><style>.cls-1{fill:#f6dcfb;}.cls-2{fill:#935e3a;}.cls-3{fill:#d54cec;}.cls-4{fill:#da63f7;}.cls-5{fill:#a36b41;}.cls-6{fill:#eafc88;stroke:#da63f7;}.cls-6,.cls-7{stroke-miterlimit:10;}.cls-7{fill:#d2f707;stroke:#d54cec;}.cls-8{fill:#f8fed8;filter:url(#drop-shadow-11);}</style><filter id="drop-shadow-11" filterUnits="userSpaceOnUse"><feOffset dx="2" dy="2"/><feGaussianBlur result="blur" stdDeviation="2"/><feFlood flood-color="#232323" flood-opacity=".2"/><feComposite in2="blur" operator="in"/><feComposite in="SourceGraphic"/></filter></defs><path class="cls-8" d="m197.6,41.8c-4.22-17.2-32.1-25.23-62.27-17.94-.48.12-.97.24-1.45.36-4.47-12.96-19.37-22.48-37.05-22.48-19.51,0-35.62,11.58-38.09,26.57-5.6-4.44-12.52-7.06-20-7.06-18.76,0-33.96,16.48-33.96,36.81,0,19.09,13.41,34.79,30.56,36.63-1.89,20.38,10.06,40.53,30.56,48.6,23.89,9.39,50.66-1.06,61.22-23.41,4.83,8.95,13.02,15.17,22.79,16.08,16.95,1.58,32.24-13.44,34.14-33.53.97-10.33-1.78-19.99-6.98-27.15,14.91-9.33,23.35-22.01,20.54-33.49Z"/><path class="cls-7" d="m68.51,79.87c1.39-12.25.82-21.57,0-27.94-.58-4.47-1.79-11.32.37-19.85.79-3.13,1.85-5.83,2.94-8.09h23.53c8.18,9.35,10.92,22.16,6.98,33.45-4.75,13.63-18.46,22.87-33.82,22.42Z"/><rect class="cls-1" x="63" y="96.05" width="30.88" height="18.01"/><rect class="cls-1" x="125.12" y="60.02" width="30.88" height="54.04"/><rect class="cls-1" x="93.88" y="78.04" width="31.25" height="36.02"/><path class="cls-3" d="m81.98,102.34c-.62-.41-1.7.06-2.7,1.08-.93-1.05-1.96-1.57-2.6-1.2-.86.5-.66,2.45.75,4.28.77.99,1.2,1.46,1.51,1.62.02.01.03.02.05.02,0,0,.01,0,.02,0,.03.01.06.02.1.03,0,0,.02,0,.03,0,.02,0,.04,0,.06,0,.02,0,.05,0,.07,0,.02,0,.05-.01.07-.02h0c.37-.12.89-.62,1.71-1.65,1.5-1.89,1.78-3.6.95-4.15Z"/><path class="cls-3" d="m108.45,85.07c-.62-.41-1.7.06-2.7,1.08-.93-1.05-1.96-1.57-2.6-1.2-.86.5-.66,2.45.75,4.28.77.99,1.2,1.46,1.51,1.62.02.01.03.02.05.02,0,0,.01,0,.02,0,.03.01.06.02.1.03,0,0,.02,0,.03,0,.02,0,.04,0,.06,0,.02,0,.05,0,.07,0,.02,0,.05-.01.07-.02h0c.37-.12.89-.62,1.71-1.65,1.5-1.89,1.78-3.6.95-4.15Z"/><path class="cls-3" d="m116.54,85.07c-.62-.41-1.7.06-2.7,1.08-.93-1.05-1.96-1.57-2.6-1.2-.86.5-.66,2.45.75,4.28.77.99,1.2,1.46,1.51,1.62.02.01.03.02.05.02,0,0,.01,0,.02,0,.03.01.06.02.1.03,0,0,.02,0,.03,0,.02,0,.04,0,.06,0,.02,0,.05,0,.07,0,.02,0,.05-.01.07-.02h0c.37-.12.89-.62,1.71-1.65,1.5-1.89,1.78-3.6.95-4.15Z"/><path class="cls-3" d="m151.46,67.06c-.62-.41-1.7.06-2.7,1.08-.93-1.05-1.96-1.57-2.6-1.2-.86.5-.66,2.45.75,4.28.77.99,1.2,1.46,1.51,1.62.02.01.03.02.05.02,0,0,.01,0,.02,0,.03.01.06.02.1.03,0,0,.02,0,.03,0,.02,0,.04,0,.06,0,.02,0,.05,0,.07,0,.02,0,.05-.01.07-.02h0c.37-.12.89-.62,1.71-1.65,1.5-1.89,1.78-3.6.95-4.15Z"/><path class="cls-3" d="m136.02,67.06c-.62-.41-1.7.06-2.7,1.08-.93-1.05-1.96-1.57-2.6-1.2-.86.5-.66,2.45.75,4.28.77.99,1.2,1.46,1.51,1.62.02.01.03.02.05.02,0,0,.01,0,.02,0,.03.01.06.02.1.03,0,0,.02,0,.03,0,.02,0,.04,0,.06,0,.02,0,.05,0,.07,0,.02,0,.05-.01.07-.02h0c.37-.12.89-.62,1.71-1.65,1.5-1.89,1.78-3.6.95-4.15Z"/><path class="cls-3" d="m143.74,67.06c-.62-.41-1.7.06-2.7,1.08-.93-1.05-1.96-1.57-2.6-1.2-.86.5-.66,2.45.75,4.28.77.99,1.2,1.46,1.51,1.62.02.01.03.02.05.02,0,0,.01,0,.02,0,.03.01.06.02.1.03,0,0,.02,0,.03,0,.02,0,.04,0,.06,0,.02,0,.05,0,.07,0,.02,0,.05-.01.07-.02h0c.37-.12.89-.62,1.71-1.65,1.5-1.89,1.78-3.6.95-4.15Z"/><path class="cls-5" d="m115.94,74.21c-2.65,1.26-6.04.15-7.17-2.05-.24-.39-.44-.79-.6-1.19-1.18-.21-2.36-.43-3.54-.65v-6.22c-1.45-1.6-2.67-4.5-2.9-5.04-2-4.73-2.31-10.1-1.77-14.61-9.42-1.24-21.79-14.68-19.85-18.2,1.44-2.61,10.92-.16,16.35,2.32.93.43,12.87,6,11.55,11.53-.01.04-.02.08-.03.12.89,2.89,1.56,6.4,1.8,9.31.11,1.3.15,2.66.13,4.02.16,3.83.32,7.67.48,11.5.58,2.74,1.82,5.81,4.41,8.21.37.34.75.66,1.14.95Z"/><path class="cls-4" d="m118.87,76.36c-.17,1.07-2.33,1.68-3.31,1.68-1.83,0-2.51,0-2.77-.18-.07-.05-.02-.02-.54-.55-.08-.08-.15-.15-.23-.23l-5.29-3.36v4.32h-2.21l-.96-7.01c-.38-.76-.6-1.64-.51-2.55.12-1.22.85-2.87,1.84-2.94v-.74h5.6c.15,0,.28.13.28.28v.17c0,.15-.12.28-.28.28h-5.45c1.68.15,3.3,4.67,3.51,5.68.5.56,1.11,1.13,1.85,1.67.62.45,1.25.81,1.85,1.1,2.07-.07,2.15-.56,3.3-.36,1.69.29,3.48,1.69,3.31,2.73Z"/><path class="cls-2" d="m83.58,92.22c-2.34,1.26-5.34.15-6.34-2.05-.21-.39-.39-.79-.53-1.19-1.04-.21-2.09-.43-3.13-.65v-6.22c-1.28-1.6-2.36-4.5-2.56-5.04-3.96-10.63-.42-24.46,2.31-24.54,2.2-.07,4.34,8.81,4.8,15.01.1,1.3.13,2.66.12,4.02.14,3.83.28,7.67.42,11.5.52,2.74,1.61,5.81,3.9,8.21.33.34.66.66,1.01.95Z"/><path class="cls-3" d="m87.26,94.37c-.17,1.07-2.33,1.68-3.31,1.68-1.83,0-2.51,0-2.77-.18-.07-.05-.02-.02-.54-.55-.08-.08-.15-.15-.23-.23l-5.29-3.36v4.32h-2.21l-.96-7.01c-.38-.76-.6-1.64-.51-2.55.12-1.22.85-2.87,1.84-2.94v-.74h5.6c.15,0,.28.13.28.28v.17c0,.15-.12.28-.28.28h-5.49c1.69.07,3.34,4.66,3.55,5.68.5.56,1.11,1.13,1.85,1.67.62.45,1.25.81,1.85,1.1,2.07-.07,2.15-.56,3.3-.36,1.69.29,3.48,1.69,3.31,2.73Z"/><path class="cls-6" d="m68.88,76.57c-1.1-8.21-2.21-16.42-3.31-24.63-.92-4.49-1.71-11.63.37-19.85.79-3.13,1.85-5.83,2.94-8.09h26.47c4.12,5.13,6.95,12.57,4.78,19.11-1.72,5.18-6.73,6.82-13.23,11.76-5.13,3.9-11.97,10.44-18.01,21.69Z"/></svg>