<svg width="225" height="19" viewBox="0 0 225 19" fill="none" xmlns="http://www.w3.org/2000/svg">
<mask id="mask0_34_1917" style="mask-type:luminance" maskUnits="userSpaceOnUse" x="0" y="0" width="225" height="19">
<path d="M224.847 0H0V18.4674H224.847V0Z" fill="white"/>
</mask>
<g mask="url(#mask0_34_1917)">
<mask id="mask1_34_1917" style="mask-type:luminance" maskUnits="userSpaceOnUse" x="0" y="0" width="19" height="19">
<path d="M0 0H18.1651V18.4672H0V0Z" fill="white"/>
</mask>
<g mask="url(#mask1_34_1917)">
<path d="M0 9.28319C0 3.98845 3.93162 -0.000976562 9.63571 -0.000976562C14.1321 -0.000976562 17.0095 2.25748 17.9088 5.36871H15.93C15.1081 3.48712 13.4638 1.75545 9.63571 1.75545C5.08721 1.75545 2.00419 4.79172 2.00419 9.28319C2.00419 13.6743 4.77948 16.7105 9.63571 16.7105C13.2328 16.7105 15.2877 15.1295 16.1616 13.6743V10.0858H9.55824V8.37953H18.0629V14.0505C17.1123 15.9823 14.2088 18.467 9.63571 18.467C3.64851 18.467 0 14.527 0 9.28319Z" fill="#141414"/>
</g>
<mask id="mask2_34_1917" style="mask-type:luminance" maskUnits="userSpaceOnUse" x="28" y="0" width="20" height="19">
<path d="M28.3595 0H47.266V18.4672H28.3595V0Z" fill="white"/>
</mask>
<g mask="url(#mask2_34_1917)">
<path d="M37.7704 16.7105C33.4282 16.7105 30.3959 13.6743 30.3959 9.233C30.3959 4.79172 33.4282 1.75545 37.7704 1.75545C42.1125 1.75545 45.1441 4.79172 45.1441 9.233C45.1441 13.6743 42.1125 16.7105 37.7704 16.7105ZM37.7704 -0.000976562C32.3487 -0.000976562 28.3917 3.93826 28.3917 9.233C28.3917 14.527 32.3487 18.467 37.7704 18.467C43.1921 18.467 47.149 14.527 47.149 9.233C47.149 3.93826 43.1921 -0.000976562 37.7704 -0.000976562Z" fill="#141414"/>
</g>
<mask id="mask3_34_1917" style="mask-type:luminance" maskUnits="userSpaceOnUse" x="56" y="0" width="20" height="19">
<path d="M56.9054 0H75.8121V18.4672H56.9054V0Z" fill="white"/>
</mask>
<g mask="url(#mask3_34_1917)">
<path d="M66.2917 16.7107C61.9496 16.7107 58.9172 13.6745 58.9172 9.23325C58.9172 4.79197 61.9496 1.75569 66.2917 1.75569C70.6339 1.75569 73.6655 4.79197 73.6655 9.23325C73.6655 13.6745 70.6339 16.7107 66.2917 16.7107ZM66.2917 -0.000732422C60.87 -0.000732422 56.9131 3.93851 56.9131 9.23325C56.9131 14.5273 60.87 18.4672 66.2917 18.4672C71.7127 18.4672 75.6697 14.5273 75.6697 9.23325C75.6697 3.93851 71.7127 -0.000732422 66.2917 -0.000732422Z" fill="#141414"/>
</g>
<path d="M93.3466 16.259H89.5692V2.20761H93.3979C98.4598 2.20761 101.183 5.06781 101.183 9.18311C101.183 13.3486 98.4598 16.259 93.3466 16.259ZM93.6036 0.451172H87.6678V18.0155H93.5522C99.4097 18.0155 103.212 14.3768 103.212 9.18311C103.212 4.03897 99.4097 0.451172 93.6036 0.451172Z" fill="#141414"/>
<path d="M115.751 18.0155H117.653V0.451172H115.751V18.0155Z" fill="#141414"/>
<path d="M132.684 0.451172H145.068V2.20761H134.585V8.37985H144.451V10.0861H134.585V16.259H145.171V18.0155H132.684" fill="#141414"/>
<path d="M166.06 16.259H160.202V10.0861H165.931C169.092 10.0861 170.967 10.8646 170.967 13.123C170.967 15.3809 169.067 16.259 166.06 16.259ZM160.202 2.20761H165.622C168.553 2.20761 170.325 2.9352 170.325 5.44398C170.325 7.82831 168.244 8.37985 165.443 8.37985H160.202V2.20761ZM169.349 9.23332C170.916 8.78218 172.277 7.57729 172.277 5.31882C172.277 1.95658 169.761 0.451172 165.803 0.451172H158.327V18.0155H166.009C170.171 18.0155 172.919 16.4097 172.919 13.1973C172.919 10.9395 171.507 9.55928 169.349 9.23332Z" fill="#141414"/>
<mask id="mask4_34_1917" style="mask-type:luminance" maskUnits="userSpaceOnUse" x="182" y="0" width="20" height="19">
<path d="M182.392 0H201.298V18.4672H182.392V0Z" fill="white"/>
</mask>
<g mask="url(#mask4_34_1917)">
<path d="M191.778 16.7107C187.437 16.7107 184.405 13.6745 184.405 9.23325C184.405 4.79197 187.437 1.75569 191.778 1.75569C196.121 1.75569 199.153 4.79197 199.153 9.23325C199.153 13.6745 196.121 16.7107 191.778 16.7107ZM191.778 -0.000732422C186.358 -0.000732422 182.402 3.93851 182.402 9.23325C182.402 14.5273 186.358 18.4672 191.778 18.4672C197.2 18.4672 201.157 14.5273 201.157 9.23325C201.157 3.93851 197.2 -0.000732422 191.778 -0.000732422Z" fill="#141414"/>
</g>
<mask id="mask5_34_1917" style="mask-type:luminance" maskUnits="userSpaceOnUse" x="209" y="0" width="16" height="19">
<path d="M209.084 0.362305H224.847V18.1019H209.084V0.362305Z" fill="white"/>
</mask>
<g mask="url(#mask5_34_1917)">
<path d="M222.639 18.0155L216.986 10.5379L211.308 18.0155H209.149L215.907 9.10816L209.355 0.451172H211.564L217.012 7.65295L222.484 0.451172H224.643L218.091 9.0827L224.848 18.0155" fill="#141414"/>
</g>
</g>
</svg>
